{"glyphs":{":":{"x_min":0,"x_max":333,"ha":333,"o":"m 98 381 l 98 519 l 235 519 l 235 381 z m 98 0 l 98 137 l 235 137 l 235 0 z"},"$":{"x_min":0,"x_max":556,"ha":556,"o":"m 239 106 l 239 311 q 143 338 98 393 q 54 449 54 528 q 54 608 104 662 q 155 717 239 725 l 239 773 l 310 773 l 310 725 q 387 716 433 672 q 479 628 492 555 l 368 539 q 357 597 310 617 l 310 426 q 427 395 469 344 q 512 293 512 214 q 512 126 458 65 q 405 5 310 -9 l 310 -100 l 239 -100 l 239 -11 q 154 -1 102 52 q 49 104 34 201 l 162 214 q 169 175 191 147 q 212 119 239 106 z m 239 619 q 210 609 193 585 q 176 562 176 534 q 176 508 191 486 q 207 463 239 450 z m 310 99 q 346 106 369 133 q 392 160 392 197 q 392 229 373 253 q 354 277 310 290 z"},"?":{"x_min":0,"x_max":611,"ha":611,"o":"m 367 185 l 242 185 q 242 211 242 217 q 242 278 262 317 q 282 356 342 405 q 402 454 414 469 q 432 493 432 521 q 432 562 400 590 q 368 619 313 619 q 261 619 226 589 q 191 559 178 498 l 52 514 q 57 601 126 662 q 195 723 308 723 q 426 723 496 661 q 565 600 565 518 q 565 472 540 432 q 514 391 430 321 q 387 285 376 263 q 366 241 367 185 z m 242 0 l 242 137 l 379 137 l 379 0 z"},"<":{"x_min":0,"x_max":584,"ha":584,"o":"m 537 82 l 46 295 l 46 413 l 537 625 l 537 486 l 195 355 l 537 220 z"},"'":{"x_min":0,"x_max":238,"ha":238,"o":"m 71 461 l 45 595 l 45 716 l 194 716 l 194 595 l 172 461 z"},"=":{"x_min":0,"x_max":584,"ha":584,"o":"m 42 398 l 42 524 l 542 524 l 542 398 z m 42 182 l 42 308 l 542 308 l 542 182 z"},"a":{"x_min":0,"x_max":556,"ha":556,"o":"m 174 360 l 50 383 q 71 458 122 494 q 173 530 274 530 q 366 530 411 509 q 456 487 474 453 q 493 420 493 331 l 491 170 q 491 102 498 70 q 504 37 522 0 l 387 0 q 381 14 374 41 q 370 53 369 57 q 333 22 293 5 q 253 -12 208 -12 q 128 -12 82 32 q 36 75 36 142 q 36 186 57 220 q 78 254 115 273 q 153 291 225 305 q 321 323 358 338 l 358 352 q 358 392 338 408 q 319 425 265 425 q 228 425 208 411 q 187 396 174 360 z m 358 249 q 332 240 274 228 q 217 216 200 204 q 173 185 173 156 q 173 127 194 106 q 216 85 249 85 q 286 85 320 109 q 345 128 353 155 q 358 172 358 222 z"},"L":{"x_min":0,"x_max":611,"ha":611,"o":"m 77 0 l 77 710 l 221 710 l 221 121 l 581 121 l 581 0 z"},"3":{"x_min":0,"x_max":556,"ha":556,"o":"m 38 190 l 170 206 q 177 155 205 128 q 232 102 272 102 q 314 102 344 134 q 373 166 373 221 q 373 272 345 303 q 317 333 277 333 q 250 333 214 323 l 229 435 q 285 433 314 459 q 343 484 343 527 q 343 563 322 584 q 300 606 265 606 q 229 606 205 582 q 180 557 174 510 l 48 532 q 61 597 88 635 q 114 674 162 697 q 209 719 269 719 q 370 719 431 654 q 481 602 481 535 q 481 441 378 385 q 439 372 476 326 q 513 280 513 215 q 513 121 444 54 q 375 -12 273 -12 q 176 -12 112 44 q 48 100 38 190 z"},";":{"x_min":0,"x_max":333,"ha":333,"o":"m 94 381 l 94 519 l 231 519 l 231 381 z m 94 137 l 231 137 l 231 39 q 231 -21 221 -55 q 211 -89 182 -117 q 154 -144 110 -160 l 83 -103 q 125 -89 142 -65 q 160 -41 161 0 l 94 0 z"},"J":{"x_min":0,"x_max":556,"ha":556,"o":"m 331 716 l 475 716 l 475 263 q 475 174 459 126 q 438 63 383 26 q 328 -12 238 -12 q 132 -12 75 47 q 18 106 17 221 l 153 237 q 156 175 171 150 q 195 111 243 111 q 291 111 311 139 q 331 167 331 253 z"},"V":{"x_min":0,"x_max":667,"ha":667,"o":"m 255 0 l 0 716 l 156 716 l 337 186 l 513 716 l 666 716 l 410 0 z"},"\"":{"x_min":0,"x_max":474,"ha":474,"o":"m 81 461 l 55 595 l 55 716 l 204 716 l 204 595 l 182 461 z m 301 461 l 275 595 l 275 716 l 424 716 l 424 595 l 402 461 z"},"7":{"x_min":0,"x_max":556,"ha":556,"o":"m 42 579 l 42 706 l 512 706 l 512 606 q 454 549 394 442 q 333 335 302 215 q 271 95 271 0 l 139 0 q 142 148 200 303 q 258 457 354 579 z"},"S":{"x_min":0,"x_max":667,"ha":667,"o":"m 36 233 l 177 247 q 189 176 228 143 q 267 109 333 109 q 403 109 438 139 q 474 168 474 208 q 474 233 459 251 q 444 269 407 282 q 381 291 291 313 q 175 342 128 384 q 62 443 62 528 q 62 583 93 631 q 124 678 182 703 q 241 728 323 728 q 458 728 526 669 q 594 610 598 511 l 453 505 q 444 560 413 584 q 383 608 322 608 q 259 608 223 583 q 200 566 200 538 q 200 513 222 495 q 249 472 354 447 q 460 422 510 395 q 561 369 590 323 q 618 276 618 208 q 618 147 584 93 q 550 40 487 13 q 425 -13 332 -13 q 196 -13 123 50 q 50 113 36 233 z"},"}":{"x_min":0,"x_max":389,"ha":389,"o":"m 356 200 q 320 198 302 189 q 284 181 271 160 q 258 139 253 108 q 249 84 249 27 q 249 -68 240 -105 q 232 -143 209 -166 q 186 -188 142 -202 q 112 -210 48 -210 l 22 -210 l 22 -93 q 74 -93 90 -87 q 106 -80 114 -68 q 122 -55 122 -25 q 122 4 126 88 q 128 139 139 170 q 150 200 168 221 q 186 243 213 259 q 177 282 161 305 q 138 337 129 387 q 124 421 122 537 q 121 574 115 586 q 109 598 93 605 q 77 611 22 611 l 22 728 l 48 728 q 114 728 149 718 q 184 708 208 683 q 232 658 240 622 q 249 586 249 509 q 249 420 256 393 q 267 354 289 337 q 311 320 356 317 z"},"Z":{"x_min":0,"x_max":611,"ha":611,"o":"m 11 0 l 11 130 l 387 595 l 53 595 l 53 716 l 577 716 l 577 604 l 185 121 l 592 121 l 592 0 z"},"x":{"x_min":0,"x_max":556,"ha":556,"o":"m 6 0 l 193 267 l 14 519 l 181 519 l 273 376 l 370 519 l 531 519 l 355 273 l 547 0 l 378 0 l 273 161 l 167 0 z"},")":{"x_min":0,"x_max":333,"ha":333,"o":"m 34 -210 q 74 -124 91 -77 q 107 -31 122 30 q 136 90 143 145 q 149 199 149 256 q 149 373 125 476 q 100 580 33 728 l 126 728 q 200 623 240 505 q 281 388 281 267 q 281 165 249 48 q 212 -83 128 -210 z"},"&":{"x_min":0,"x_max":722,"ha":722,"o":"m 706 87 l 623 -19 q 562 11 506 63 q 462 24 414 6 q 365 -13 297 -13 q 164 -13 96 62 q 44 121 44 196 q 44 265 85 320 q 126 375 208 416 q 171 459 152 498 q 134 538 134 573 q 134 638 186 683 q 238 728 334 728 q 427 728 479 681 q 531 633 531 565 q 531 521 505 482 q 479 443 401 394 l 500 263 q 518 294 531 344 l 655 316 q 636 250 623 219 q 609 189 593 168 q 616 147 653 121 q 689 96 706 87 z m 333 477 l 370 505 q 411 537 411 568 q 411 594 391 613 q 371 631 337 631 q 305 631 286 615 q 268 599 268 577 q 268 552 299 516 z m 279 328 q 231 304 208 270 q 185 236 185 201 q 185 157 214 129 q 243 101 292 101 q 324 101 354 113 q 383 126 418 155 z"},"_":{"x_min":0,"x_max":556,"ha":556,"o":"m -9 -198 l -9 -109 l 561 -109 l 561 -198 z"},"v":{"x_min":0,"x_max":556,"ha":556,"o":"m 214 0 l 5 519 l 149 519 l 247 254 l 275 166 q 287 199 290 210 q 296 232 304 254 l 403 519 l 544 519 l 338 0 z"},"O":{"x_min":0,"x_max":778,"ha":778,"o":"m 43 354 q 43 463 76 537 q 101 592 143 635 q 185 679 235 700 q 302 728 390 728 q 548 728 643 630 q 738 532 738 357 q 738 184 644 86 q 549 -12 392 -12 q 232 -12 138 85 q 43 183 43 354 z m 192 358 q 192 237 249 174 q 305 111 391 111 q 478 111 533 174 q 588 236 588 360 q 588 483 534 544 q 480 604 391 604 q 302 604 247 543 q 192 482 192 358 z"},"(":{"x_min":0,"x_max":333,"ha":333,"o":"m 299 -210 l 205 -210 q 130 -98 91 24 q 52 146 52 259 q 52 400 101 526 q 143 636 207 728 l 301 728 q 234 580 209 476 q 184 373 184 256 q 184 176 198 92 q 213 8 239 -67 q 256 -117 299 -210 z"},"C":{"x_min":0,"x_max":722,"ha":722,"o":"m 531 263 l 671 219 q 639 102 564 45 q 489 -12 374 -12 q 231 -12 139 85 q 47 183 47 352 q 47 530 140 629 q 232 728 382 728 q 514 728 596 650 q 645 604 669 519 l 526 484 q 513 540 473 572 q 433 604 375 604 q 295 604 246 547 q 196 490 196 362 q 196 227 245 169 q 294 111 372 111 q 430 111 471 148 q 513 185 531 263 z"},"W":{"x_min":0,"x_max":944,"ha":944,"o":"m 174 0 l 3 716 l 151 716 l 259 224 l 390 716 l 562 716 l 688 216 l 797 716 l 943 716 l 769 0 l 616 0 l 473 535 l 331 0 z"},"A":{"x_min":0,"x_max":722,"ha":722,"o":"m 718 0 l 561 0 l 499 163 l 212 163 l 153 0 l 0 0 l 279 716 l 432 716 z m 452 283 l 354 549 l 257 283 z"},"f":{"x_min":0,"x_max":333,"ha":333,"o":"m 12 519 l 88 519 l 88 558 q 88 623 102 655 q 116 688 153 708 q 190 728 248 728 q 306 728 362 710 l 344 615 q 311 623 281 623 q 251 623 238 609 q 225 595 225 555 l 225 519 l 328 519 l 328 411 l 225 411 l 225 0 l 88 0 l 88 411 l 12 411 z"},"Q":{"x_min":0,"x_max":778,"ha":778,"o":"m 649 91 q 702 53 765 30 l 711 -72 q 679 -62 647 -45 q 641 -42 551 19 q 481 -12 396 -12 q 230 -12 137 85 q 43 182 43 358 q 43 533 137 631 q 231 728 392 728 q 551 728 644 631 q 737 533 737 358 q 737 265 711 195 q 692 141 649 91 z m 533 172 q 561 205 574 251 q 588 298 588 358 q 588 482 534 543 q 479 604 391 604 q 302 604 247 543 q 192 481 192 358 q 192 232 247 170 q 302 108 386 108 q 417 108 445 118 q 401 147 356 163 l 396 246 q 468 221 533 172 z"},"w":{"x_min":0,"x_max":778,"ha":778,"o":"m 168 0 l 4 519 l 138 519 l 235 179 l 324 519 l 457 519 l 543 179 l 642 519 l 777 519 l 611 0 l 479 0 l 390 333 l 302 0 z"},"-":{"x_min":0,"x_max":333,"ha":333,"o":"m 56 191 l 56 328 l 326 328 l 326 191 z"},"E":{"x_min":0,"x_max":667,"ha":667,"o":"m 73 0 l 73 716 l 604 716 l 604 595 l 217 595 l 217 436 l 577 436 l 577 315 l 217 315 l 217 121 l 617 121 l 617 0 z"},"s":{"x_min":0,"x_max":556,"ha":556,"o":"m 23 148 l 161 169 q 170 129 197 108 q 224 87 272 87 q 325 87 352 107 q 370 121 370 144 q 370 159 360 169 q 350 179 314 188 q 148 224 104 254 q 42 296 42 371 q 42 438 96 484 q 149 530 261 530 q 367 530 419 496 q 471 461 490 393 l 361 369 q 353 399 329 416 q 306 432 263 432 q 209 432 186 417 q 170 406 170 389 q 170 374 184 364 q 202 350 312 325 q 421 300 465 264 q 508 228 508 162 q 508 91 448 40 q 389 -12 272 -12 q 166 -12 104 31 q 42 74 23 148 z"},">":{"x_min":0,"x_max":584,"ha":584,"o":"m 46 81 l 46 219 l 389 354 l 46 487 l 46 625 l 538 412 l 538 295 z"},"l":{"x_min":0,"x_max":278,"ha":278,"o":"m 72 0 l 72 716 l 209 716 l 209 0 z"},"8":{"x_min":0,"x_max":556,"ha":556,"o":"m 160 386 q 107 409 83 448 q 59 487 59 534 q 59 614 115 667 q 170 719 273 719 q 375 719 432 667 q 488 614 488 534 q 488 484 462 446 q 437 407 390 386 q 449 362 480 316 q 511 271 511 210 q 511 111 448 49 q 385 -13 280 -13 q 182 -13 117 39 q 41 99 41 205 q 41 263 69 311 q 98 360 160 386 z m 188 524 q 188 483 212 460 q 235 438 273 438 q 312 438 336 461 q 359 484 359 525 q 359 563 336 587 q 313 610 275 610 q 235 610 212 586 q 188 563 188 524 z m 176 218 q 176 161 205 129 q 234 98 277 98 q 320 98 348 128 q 375 159 375 216 q 375 267 347 297 q 319 328 275 328 q 225 328 200 293 q 176 258 176 218 z"},"\\":{"x_min":0,"x_max":278,"ha":278,"o":"m -1 728 l 100 728 l 279 -12 l 176 -12 z"},"e":{"x_min":0,"x_max":556,"ha":556,"o":"m 372 165 l 509 142 q 482 67 426 28 q 369 -12 283 -12 q 148 -12 83 77 q 32 147 32 255 q 32 384 99 457 q 167 530 270 530 q 385 530 452 454 q 519 377 516 220 l 172 220 q 174 159 206 125 q 237 91 285 91 q 317 91 339 108 q 361 126 372 165 z m 380 304 q 378 363 349 394 q 320 425 278 425 q 233 425 204 393 q 174 360 175 304 z"},"b":{"x_min":0,"x_max":611,"ha":611,"o":"m 66 0 l 66 716 l 203 716 l 203 458 q 267 530 354 530 q 448 530 510 462 q 572 393 572 265 q 572 132 509 60 q 446 -12 355 -12 q 311 -12 268 10 q 225 33 193 76 l 193 0 z m 202 271 q 202 190 228 151 q 263 97 322 97 q 368 97 400 135 q 432 174 432 258 q 432 347 399 386 q 367 425 317 425 q 268 425 235 387 q 202 349 202 271 z"},"%":{"x_min":0,"x_max":889,"ha":889,"o":"m 43 539 q 43 635 86 682 q 128 728 200 728 q 275 728 317 682 q 359 636 359 539 q 359 443 317 396 q 275 350 203 350 q 128 350 86 396 q 43 442 43 539 z m 150 540 q 150 470 167 446 q 179 429 200 429 q 222 429 234 446 q 250 470 250 540 q 250 610 234 633 q 222 651 200 651 q 179 651 167 634 q 150 610 150 540 z m 305 -27 l 203 -27 l 584 728 l 683 728 z m 526 161 q 526 257 569 303 q 611 350 684 350 q 758 350 800 303 q 842 257 842 161 q 842 64 800 18 q 758 -29 686 -29 q 611 -29 569 18 q 526 64 526 161 z m 633 161 q 633 91 649 68 q 662 50 683 50 q 705 50 717 67 q 733 91 733 161 q 733 231 717 255 q 705 272 683 272 q 661 272 649 255 q 633 231 633 161 z"},"m":{"x_min":0,"x_max":889,"ha":889,"o":"m 62 519 l 188 519 l 188 448 q 256 530 350 530 q 399 530 436 510 q 473 489 496 448 q 530 489 570 510 q 609 530 654 530 q 711 530 751 507 q 791 484 810 439 q 824 406 824 332 l 824 0 l 687 0 l 687 296 q 687 374 673 396 q 654 425 614 425 q 585 425 560 408 q 535 390 523 356 q 512 322 512 249 l 512 0 l 375 0 l 375 284 q 375 360 368 382 q 360 404 345 415 q 330 425 303 425 q 271 425 246 408 q 221 391 210 359 q 199 327 199 252 l 199 0 l 62 0 z"},"#":{"x_min":0,"x_max":556,"ha":556,"o":"m 75 178 l 9 178 l 9 286 l 97 286 l 126 430 l 9 430 l 9 538 l 148 538 l 187 728 l 296 728 l 257 538 l 365 538 l 403 728 l 516 728 l 477 538 l 544 538 l 544 430 l 455 430 l 426 286 l 544 286 l 544 178 l 404 178 l 365 -12 l 256 -12 l 294 178 l 186 178 l 147 -12 l 37 -12 z m 236 430 l 207 286 l 315 286 l 344 430 z"},",":{"x_min":0,"x_max":278,"ha":278,"o":"m 68 137 l 206 137 l 206 39 q 206 -21 195 -55 q 185 -89 156 -117 q 128 -144 84 -160 l 57 -103 q 99 -89 116 -65 q 134 -42 135 0 l 68 0 z"},"n":{"x_min":0,"x_max":611,"ha":611,"o":"m 543 0 l 406 0 l 406 265 q 406 349 397 373 q 389 398 369 412 q 349 425 321 425 q 286 425 257 406 q 229 386 219 354 q 208 322 208 235 l 208 0 l 71 0 l 71 519 l 198 519 l 198 442 q 266 530 369 530 q 415 530 452 514 q 490 498 509 472 q 528 447 536 415 q 543 382 543 322 z"},"h":{"x_min":0,"x_max":611,"ha":611,"o":"m 208 716 l 208 453 q 275 530 367 530 q 415 530 453 513 q 491 495 510 468 q 529 440 536 407 q 543 374 543 304 l 543 0 l 406 0 l 406 274 q 406 355 398 377 q 391 399 371 412 q 351 425 321 425 q 287 425 260 409 q 233 392 221 359 q 208 325 208 260 l 208 0 l 71 0 l 71 716 z"},"z":{"x_min":0,"x_max":500,"ha":500,"o":"m 17 0 l 17 107 l 211 330 q 259 385 282 408 q 258 406 219 406 l 36 405 l 36 519 l 464 519 l 464 421 l 266 193 l 196 117 q 253 121 267 121 l 479 121 l 479 0 z"},"B":{"x_min":0,"x_max":722,"ha":722,"o":"m 73 716 l 359 716 q 444 716 486 709 q 528 702 561 679 q 594 657 616 619 q 638 582 638 536 q 638 485 611 443 q 583 401 537 380 q 603 361 638 315 q 673 270 673 208 q 673 159 650 113 q 627 66 588 39 q 549 11 491 5 q 455 1 317 0 l 73 0 z m 218 597 l 218 431 l 312 431 q 397 431 417 434 q 455 438 476 459 q 497 480 497 515 q 497 548 479 569 q 460 590 424 594 q 403 597 301 597 z m 218 312 l 218 121 l 352 121 q 430 121 451 125 q 483 131 503 154 q 523 176 523 214 q 523 247 508 269 q 492 292 463 302 q 433 312 334 312 z"},"K":{"x_min":0,"x_max":722,"ha":722,"o":"m 75 0 l 75 716 l 219 716 l 219 398 l 511 716 l 706 716 l 436 437 l 720 0 l 533 0 l 336 336 l 219 216 l 219 0 z"},"R":{"x_min":0,"x_max":722,"ha":722,"o":"m 73 0 l 73 716 l 377 716 q 492 716 544 697 q 596 677 627 628 q 659 579 659 515 q 659 435 611 382 q 564 330 470 316 q 517 289 547 256 q 578 223 629 140 l 717 0 l 544 0 l 439 156 q 384 239 363 261 q 343 283 320 291 q 297 299 247 299 l 218 299 l 218 0 z m 218 413 l 325 413 q 429 413 455 422 q 480 431 495 452 q 510 474 510 506 q 510 542 490 564 q 471 586 436 592 q 418 595 331 595 l 218 595 z"},"T":{"x_min":0,"x_max":611,"ha":611,"o":"m 234 0 l 234 595 l 21 595 l 21 716 l 590 716 l 590 595 l 378 595 l 378 0 z"},"P":{"x_min":0,"x_max":667,"ha":667,"o":"m 73 0 l 73 716 l 305 716 q 437 716 477 705 q 538 689 580 635 q 621 581 621 496 q 621 430 597 385 q 573 340 536 314 q 500 289 461 280 q 410 270 312 270 l 217 270 l 217 0 z m 217 595 l 217 392 l 296 392 q 382 392 411 403 q 439 414 456 438 q 472 462 472 494 q 472 533 449 558 q 426 583 391 590 q 365 595 287 595 z"},"|":{"x_min":0,"x_max":280,"ha":280,"o":"m 86 -210 l 86 728 l 195 728 l 195 -210 z"},"t":{"x_min":0,"x_max":333,"ha":333,"o":"m 310 519 l 310 409 l 216 409 l 216 200 q 216 137 219 126 q 221 116 231 109 q 240 102 254 102 q 273 102 309 115 l 321 9 q 273 -12 212 -12 q 175 -12 146 1 q 116 13 102 33 q 88 53 83 86 q 78 110 78 183 l 78 409 l 15 409 l 15 519 l 78 519 l 78 622 l 216 702 l 216 519 z"},"M":{"x_min":0,"x_max":833,"ha":833,"o":"m 71 0 l 71 716 l 287 716 l 417 228 l 545 716 l 762 716 l 762 0 l 628 0 l 628 563 l 486 0 l 347 0 l 205 563 l 205 0 z"},"g":{"x_min":0,"x_max":611,"ha":611,"o":"m 59 -34 l 216 -53 q 220 -81 234 -91 q 253 -105 295 -105 q 349 -105 376 -89 q 394 -79 403 -55 q 410 -38 410 8 l 410 84 q 348 0 254 0 q 150 0 89 88 q 41 158 41 262 q 41 393 104 461 q 167 530 260 530 q 356 530 418 446 l 418 519 l 547 519 l 547 53 q 547 -39 532 -84 q 517 -129 489 -155 q 462 -181 416 -196 q 371 -210 301 -210 q 169 -210 114 -165 q 59 -120 59 -51 q 59 -44 59 -34 z m 182 270 q 182 188 214 149 q 246 111 292 111 q 343 111 377 150 q 412 189 412 267 q 412 347 379 386 q 346 425 295 425 q 246 425 214 387 q 182 349 182 270 z"},"j":{"x_min":0,"x_max":278,"ha":278,"o":"m 69 589 l 69 716 l 206 716 l 206 589 z m 206 519 l 206 16 q 206 -83 193 -124 q 180 -165 143 -188 q 106 -210 49 -210 q 29 -210 5 -207 q -19 -203 -46 -196 l -22 -79 q -12 -81 -4 -82 q 5 -83 12 -83 q 33 -83 47 -74 q 60 -65 64 -52 q 69 -40 69 24 l 69 519 z"},"i":{"x_min":0,"x_max":278,"ha":278,"o":"m 72 589 l 72 716 l 209 716 l 209 589 z m 72 0 l 72 519 l 209 519 l 209 0 z"},"y":{"x_min":0,"x_max":556,"ha":556,"o":"m 7 519 l 153 519 l 277 150 l 398 519 l 540 519 l 357 20 l 324 -71 q 306 -116 290 -140 q 273 -164 252 -179 q 231 -194 200 -202 q 169 -210 130 -210 q 90 -210 52 -202 l 40 -95 q 72 -101 98 -101 q 146 -101 169 -73 q 192 -45 204 -1 z"},"@":{"x_min":0,"x_max":975,"ha":975,"o":"m 868 9 l 972 9 q 923 -90 822 -146 q 706 -210 540 -210 q 378 -210 261 -156 q 144 -102 87 5 q 30 111 30 236 q 30 373 95 491 q 160 610 272 669 q 385 729 530 729 q 653 729 749 681 q 845 633 895 545 q 946 457 946 352 q 946 228 869 127 q 773 0 623 0 q 582 0 562 14 q 541 28 534 56 q 477 0 401 0 q 320 0 267 56 q 213 112 213 205 q 213 319 278 414 q 356 529 478 529 q 565 529 606 463 l 619 517 l 748 517 l 674 167 q 667 134 667 124 q 667 112 673 106 q 678 100 686 100 q 709 100 747 128 q 796 165 827 228 q 858 290 858 357 q 858 477 771 558 q 684 639 528 639 q 396 639 304 585 q 212 531 165 433 q 119 335 119 229 q 119 126 171 42 q 223 -43 317 -82 q 411 -121 532 -121 q 648 -121 732 -88 q 816 -56 868 9 z m 340 210 q 340 148 365 119 q 390 89 427 89 q 455 89 479 103 q 498 113 516 134 q 542 164 561 221 q 580 278 580 327 q 580 382 554 412 q 528 441 489 441 q 447 441 412 409 q 376 376 358 316 q 340 256 340 210 z"},".":{"x_min":0,"x_max":278,"ha":278,"o":"m 72 0 l 72 137 l 209 137 l 209 0 z"},"p":{"x_min":0,"x_max":611,"ha":611,"o":"m 68 519 l 196 519 l 196 442 q 221 481 263 506 q 306 530 357 530 q 448 530 511 459 q 574 389 574 262 q 574 132 510 60 q 447 -12 356 -12 q 313 -12 279 5 q 244 22 205 64 l 205 -197 l 68 -197 z m 204 268 q 204 181 238 139 q 273 97 323 97 q 371 97 402 135 q 434 174 434 261 q 434 343 401 382 q 369 422 320 422 q 270 422 237 383 q 204 344 204 268 z"},"X":{"x_min":0,"x_max":667,"ha":667,"o":"m 0 0 l 245 374 l 23 716 l 192 716 l 335 486 l 476 716 l 644 716 l 421 368 l 666 0 l 491 0 l 333 248 l 173 0 z"},"*":{"x_min":0,"x_max":389,"ha":389,"o":"m 120 387 l 46 444 q 81 483 119 520 q 134 534 138 538 q 126 540 68 554 q 27 564 14 569 l 42 655 q 106 629 157 598 q 145 678 145 728 l 232 728 q 232 692 219 597 q 229 601 261 616 q 305 636 342 650 l 368 562 q 313 550 242 538 l 301 472 q 318 452 329 439 l 254 390 l 188 499 q 158 446 120 387 z"},"Y":{"x_min":0,"x_max":667,"ha":667,"o":"m 261 0 l 261 301 l -1 716 l 168 716 l 336 433 l 501 716 l 668 716 l 405 300 l 405 0 z"},"c":{"x_min":0,"x_max":556,"ha":556,"o":"m 524 365 l 389 341 q 382 381 358 402 q 333 422 295 422 q 244 422 213 387 q 183 352 183 269 q 183 176 214 138 q 245 100 297 100 q 336 100 361 122 q 386 145 396 199 l 531 176 q 510 83 450 36 q 391 -12 291 -12 q 177 -12 109 60 q 42 132 42 259 q 42 387 109 459 q 177 530 293 530 q 388 530 444 490 q 500 449 524 365 z"},"!":{"x_min":0,"x_max":333,"ha":333,"o":"m 125 185 l 90 548 l 90 716 l 238 716 l 238 548 l 203 185 z m 96 0 l 96 137 l 233 137 l 233 0 z"},"/":{"x_min":0,"x_max":278,"ha":278,"o":"m -1 -12 l 176 728 l 279 728 l 100 -12 z"},"[":{"x_min":0,"x_max":333,"ha":333,"o":"m 71 -202 l 71 716 l 314 716 l 314 608 l 202 608 l 202 -94 l 314 -94 l 314 -202 z"},"6":{"x_min":0,"x_max":556,"ha":556,"o":"m 507 541 l 375 526 q 370 567 349 586 q 329 606 296 606 q 252 606 222 567 q 192 528 185 404 q 236 465 312 465 q 398 465 459 399 q 521 334 521 230 q 521 121 456 54 q 392 -12 291 -12 q 182 -12 112 72 q 42 156 42 348 q 42 545 115 632 q 188 719 304 719 q 386 719 439 673 q 493 627 507 541 z m 196 241 q 196 174 227 138 q 258 102 297 102 q 335 102 361 131 q 386 161 386 229 q 386 299 359 331 q 332 364 291 364 q 251 364 224 333 q 196 302 196 241 z"},"r":{"x_min":0,"x_max":389,"ha":389,"o":"m 203 0 l 66 0 l 66 519 l 193 519 l 193 445 q 226 497 252 514 q 278 530 312 530 q 358 530 402 504 l 359 385 q 325 407 295 407 q 266 407 246 391 q 226 375 215 334 q 203 292 203 160 z"},"2":{"x_min":0,"x_max":556,"ha":556,"o":"m 506 127 l 506 0 l 25 0 q 33 72 72 137 q 111 202 226 309 q 319 395 340 426 q 368 468 368 510 q 368 556 344 580 q 319 605 275 605 q 232 605 207 579 q 182 553 178 493 l 41 507 q 53 620 118 669 q 182 719 279 719 q 385 719 445 662 q 506 604 506 520 q 506 471 489 427 q 471 384 434 336 q 409 304 344 245 q 279 185 261 166 q 244 146 233 127 z"},"{":{"x_min":0,"x_max":389,"ha":389,"o":"m 29 200 l 29 317 q 65 319 83 328 q 101 337 114 358 q 127 378 132 410 q 136 433 136 491 q 136 586 145 623 q 154 661 177 683 q 200 706 244 719 q 273 728 337 728 l 363 728 l 363 611 q 309 611 294 605 q 278 599 271 587 q 264 574 264 544 q 264 513 259 427 q 257 379 247 349 q 236 319 220 299 q 205 280 172 259 q 201 242 219 220 q 237 198 247 166 q 257 134 260 81 q 263 0 263 -22 q 263 -55 271 -67 q 279 -80 295 -87 q 311 -93 363 -93 l 363 -210 l 337 -210 q 271 -210 236 -200 q 201 -189 177 -165 q 153 -141 145 -105 q 136 -69 136 8 q 136 98 128 125 q 118 164 96 181 q 74 198 29 200 z"},"9":{"x_min":0,"x_max":556,"ha":556,"o":"m 45 166 l 178 180 q 183 140 204 120 q 224 101 258 101 q 300 101 330 140 q 360 179 368 302 q 316 242 239 242 q 154 242 93 307 q 32 372 32 477 q 32 585 96 652 q 161 719 261 719 q 370 719 440 635 q 510 550 510 357 q 510 161 437 74 q 364 -13 248 -13 q 164 -13 112 32 q 60 77 45 166 z m 356 465 q 356 532 325 568 q 295 605 255 605 q 217 605 192 575 q 167 545 167 477 q 167 407 194 375 q 221 342 262 342 q 302 342 329 374 q 356 405 356 465 z"}," ":{"x_min":0,"x_max":278,"ha":278,"o":""},"I":{"x_min":0,"x_max":278,"ha":278,"o":"m 68 0 l 68 716 l 213 716 l 213 0 z"},"H":{"x_min":0,"x_max":722,"ha":722,"o":"m 73 0 l 73 716 l 218 716 l 218 434 l 501 434 l 501 716 l 646 716 l 646 0 l 501 0 l 501 313 l 218 313 l 218 0 z"},"4":{"x_min":0,"x_max":556,"ha":556,"o":"m 312 0 l 312 144 l 19 144 l 19 264 l 329 719 l 444 719 l 444 265 l 533 265 l 533 144 l 444 144 l 444 0 z m 312 265 l 312 509 l 147 265 z"},"~":{"x_min":0,"x_max":584,"ha":584,"o":"m 33 253 l 33 380 q 95 447 177 447 q 208 447 234 441 q 260 435 327 408 q 394 381 418 381 q 445 381 481 398 q 517 415 551 451 l 551 319 q 529 296 489 275 q 448 255 405 255 q 381 255 358 261 q 334 267 284 289 q 209 321 166 321 q 98 321 33 253 z"},"D":{"x_min":0,"x_max":722,"ha":722,"o":"m 72 716 l 336 716 q 426 716 473 702 q 536 684 581 636 q 625 589 649 520 q 672 452 672 351 q 672 263 650 199 q 624 121 574 72 q 536 36 472 15 q 424 0 344 0 l 72 0 z m 217 595 l 217 121 l 325 121 q 385 121 412 127 q 447 136 470 157 q 494 178 508 226 q 523 274 523 357 q 523 440 508 485 q 494 529 467 554 q 441 579 400 588 q 370 595 282 595 z"},"^":{"x_min":0,"x_max":584,"ha":584,"o":"m 56 338 l 240 728 l 349 728 l 527 338 l 389 338 l 292 577 l 196 338 z"},"0":{"x_min":0,"x_max":556,"ha":556,"o":"m 274 719 q 378 719 437 645 q 507 557 507 353 q 507 150 437 61 q 378 -12 274 -12 q 170 -12 106 68 q 42 148 42 354 q 42 557 112 646 q 170 719 274 719 z m 274 605 q 250 605 230 589 q 210 573 200 532 q 186 479 186 353 q 186 227 198 180 q 211 133 230 117 q 250 102 274 102 q 299 102 319 117 q 338 133 349 174 q 363 227 363 353 q 363 479 351 526 q 338 573 319 589 q 299 605 274 605 z"},"F":{"x_min":0,"x_max":611,"ha":611,"o":"m 74 0 l 74 716 l 564 716 l 564 595 l 218 595 l 218 425 l 517 425 l 517 304 l 218 304 l 218 0 z"},"`":{"x_min":0,"x_max":333,"ha":333,"o":"m 242 582 l 155 582 l 21 728 l 174 728 z"},"k":{"x_min":0,"x_max":556,"ha":556,"o":"m 67 0 l 67 716 l 204 716 l 204 336 l 365 519 l 534 519 l 356 329 l 546 0 l 398 0 l 268 233 l 204 166 l 204 0 z"},"u":{"x_min":0,"x_max":611,"ha":611,"o":"m 413 0 l 413 78 q 385 36 339 12 q 292 -12 241 -12 q 189 -12 147 11 q 106 34 87 76 q 69 117 69 190 l 69 519 l 206 519 l 206 280 q 206 171 214 146 q 221 122 241 107 q 261 93 292 93 q 327 93 355 112 q 383 131 393 160 q 403 188 403 300 l 403 519 l 541 519 l 541 0 z"},"]":{"x_min":0,"x_max":333,"ha":333,"o":"m 262 716 l 262 -202 l 19 -202 l 19 -94 l 131 -94 l 131 609 l 19 609 l 19 716 z"},"U":{"x_min":0,"x_max":722,"ha":722,"o":"m 72 716 l 216 716 l 216 328 q 216 236 222 208 q 231 165 266 138 q 301 111 361 111 q 423 111 454 136 q 485 162 492 198 q 498 235 498 320 l 498 716 l 643 716 l 643 340 q 643 211 631 158 q 619 104 588 68 q 556 31 503 10 q 451 -12 366 -12 q 263 -12 210 11 q 157 35 126 73 q 96 111 86 152 q 72 214 72 334 z"},"o":{"x_min":0,"x_max":611,"ha":611,"o":"m 40 267 q 40 335 74 399 q 107 463 169 497 q 231 530 307 530 q 425 530 500 454 q 575 377 575 261 q 575 143 499 66 q 423 -12 308 -12 q 237 -12 172 21 q 107 53 74 115 q 40 177 40 267 z m 181 259 q 181 182 217 141 q 254 100 308 100 q 361 100 398 141 q 434 182 434 260 q 434 336 398 377 q 361 418 308 418 q 254 418 217 377 q 181 336 181 259 z"},"N":{"x_min":0,"x_max":722,"ha":722,"o":"m 74 0 l 74 716 l 215 716 l 508 238 l 508 716 l 642 716 l 642 0 l 497 0 l 208 467 l 208 0 z"},"+":{"x_min":0,"x_max":584,"ha":584,"o":"m 229 103 l 229 289 l 42 289 l 42 417 l 229 417 l 229 604 l 354 604 l 354 417 l 542 417 l 542 289 l 354 289 l 354 103 z"},"G":{"x_min":0,"x_max":778,"ha":778,"o":"m 406 263 l 406 384 l 717 384 l 717 99 q 672 55 586 21 q 500 -12 411 -12 q 299 -12 215 35 q 132 82 90 170 q 48 257 48 360 q 48 472 95 559 q 142 646 232 692 q 301 728 403 728 q 537 728 612 672 q 687 616 708 518 l 564 491 q 549 543 508 574 q 466 604 403 604 q 309 604 253 544 q 197 484 197 366 q 197 239 253 175 q 310 111 402 111 q 447 111 493 129 q 539 147 571 172 l 571 263 z"},"q":{"x_min":0,"x_max":611,"ha":611,"o":"m 411 -197 l 411 63 q 384 29 344 9 q 304 -12 257 -12 q 169 -12 112 55 q 44 132 44 265 q 44 390 108 460 q 171 530 265 530 q 316 530 354 508 q 392 486 421 442 l 421 519 l 548 519 l 548 -197 z m 415 266 q 415 345 383 384 q 350 423 301 423 q 251 423 218 383 q 185 344 185 258 q 185 172 217 135 q 249 97 296 97 q 344 97 379 139 q 415 182 415 266 z"},"d":{"x_min":0,"x_max":611,"ha":611,"o":"m 547 0 l 420 0 l 420 76 q 388 32 345 10 q 302 -12 258 -12 q 168 -12 105 60 q 41 132 41 261 q 41 393 103 462 q 165 530 260 530 q 347 530 410 458 l 410 716 l 547 716 z m 181 271 q 181 188 204 150 q 237 97 297 97 q 344 97 377 137 q 411 177 411 257 q 411 347 378 386 q 346 425 296 425 q 247 425 214 386 q 181 348 181 271 z"},"1":{"x_min":0,"x_max":556,"ha":556,"o":"m 394 0 l 256 0 l 256 517 q 181 447 79 413 l 79 538 q 133 555 196 604 q 259 653 282 719 l 394 719 z"},"5":{"x_min":0,"x_max":556,"ha":556,"o":"m 44 184 l 181 198 q 187 152 216 125 q 245 98 282 98 q 325 98 355 133 q 385 167 385 238 q 385 304 355 337 q 326 370 278 370 q 219 370 172 317 l 61 333 l 131 706 l 494 706 l 494 578 l 235 578 l 214 456 q 260 479 308 479 q 399 479 462 413 q 526 346 526 240 q 526 152 475 83 q 405 -12 281 -12 q 182 -12 119 41 q 57 94 44 184 z"}}}
